<mxfile host="app.diagrams.net" agent="Mozilla/5.0 (Windows NT 10.0; Win64; x64) AppleWebKit/537.36 (KHTML, like Gecko) Chrome/131.0.0.0 Safari/537.36 Edg/131.0.0.0" version="26.0.4">
  <diagram name="Page-1" id="kTRDHVN5_RtnqzXHp3yd">
    <mxGraphModel dx="2799" dy="2038" grid="1" gridSize="10" guides="1" tooltips="1" connect="1" arrows="1" fold="1" page="1" pageScale="1" pageWidth="827" pageHeight="1169" math="0" shadow="0">
      <root>
        <mxCell id="0" />
        <mxCell id="1" parent="0" />
        <mxCell id="zLt0u2PlP0yqmRnWrdfI-1" value="Utulisateur" style="swimlane;fontStyle=2;align=center;verticalAlign=top;childLayout=stackLayout;horizontal=1;startSize=26;horizontalStack=0;resizeParent=1;resizeLast=0;collapsible=1;marginBottom=0;rounded=0;shadow=0;strokeWidth=1;" vertex="1" parent="1">
          <mxGeometry x="-240" y="-127" width="160" height="242" as="geometry">
            <mxRectangle x="230" y="140" width="160" height="26" as="alternateBounds" />
          </mxGeometry>
        </mxCell>
        <mxCell id="zLt0u2PlP0yqmRnWrdfI-2" value="id_utulisateur" style="text;align=left;verticalAlign=top;spacingLeft=4;spacingRight=4;overflow=hidden;rotatable=0;points=[[0,0.5],[1,0.5]];portConstraint=eastwest;" vertex="1" parent="zLt0u2PlP0yqmRnWrdfI-1">
          <mxGeometry y="26" width="160" height="26" as="geometry" />
        </mxCell>
        <mxCell id="zLt0u2PlP0yqmRnWrdfI-3" value="role" style="text;align=left;verticalAlign=top;spacingLeft=4;spacingRight=4;overflow=hidden;rotatable=0;points=[[0,0.5],[1,0.5]];portConstraint=eastwest;rounded=0;shadow=0;html=0;" vertex="1" parent="zLt0u2PlP0yqmRnWrdfI-1">
          <mxGeometry y="52" width="160" height="26" as="geometry" />
        </mxCell>
        <mxCell id="zLt0u2PlP0yqmRnWrdfI-4" value="nom" style="text;align=left;verticalAlign=top;spacingLeft=4;spacingRight=4;overflow=hidden;rotatable=0;points=[[0,0.5],[1,0.5]];portConstraint=eastwest;rounded=0;shadow=0;html=0;" vertex="1" parent="zLt0u2PlP0yqmRnWrdfI-1">
          <mxGeometry y="78" width="160" height="26" as="geometry" />
        </mxCell>
        <mxCell id="zLt0u2PlP0yqmRnWrdfI-5" value="prÃ©nom&lt;div&gt;&lt;br&gt;&lt;div&gt;mail&lt;/div&gt;&lt;/div&gt;" style="text;html=1;align=left;verticalAlign=middle;resizable=0;points=[];autosize=1;strokeColor=none;fillColor=none;" vertex="1" parent="zLt0u2PlP0yqmRnWrdfI-1">
          <mxGeometry y="104" width="160" height="60" as="geometry" />
        </mxCell>
        <mxCell id="zLt0u2PlP0yqmRnWrdfI-126" value="ref_commande" style="text;align=left;verticalAlign=top;spacingLeft=4;spacingRight=4;overflow=hidden;rotatable=0;points=[[0,0.5],[1,0.5]];portConstraint=eastwest;rounded=0;shadow=0;html=0;" vertex="1" parent="zLt0u2PlP0yqmRnWrdfI-1">
          <mxGeometry y="164" width="160" height="26" as="geometry" />
        </mxCell>
        <mxCell id="zLt0u2PlP0yqmRnWrdfI-127" value="ref_demandeFourniture" style="text;align=left;verticalAlign=top;spacingLeft=4;spacingRight=4;overflow=hidden;rotatable=0;points=[[0,0.5],[1,0.5]];portConstraint=eastwest;rounded=0;shadow=0;html=0;" vertex="1" parent="zLt0u2PlP0yqmRnWrdfI-1">
          <mxGeometry y="190" width="160" height="26" as="geometry" />
        </mxCell>
        <mxCell id="zLt0u2PlP0yqmRnWrdfI-134" value="ref_dossierInscription" style="text;align=left;verticalAlign=top;spacingLeft=4;spacingRight=4;overflow=hidden;rotatable=0;points=[[0,0.5],[1,0.5]];portConstraint=eastwest;rounded=0;shadow=0;html=0;" vertex="1" parent="zLt0u2PlP0yqmRnWrdfI-1">
          <mxGeometry y="216" width="160" height="26" as="geometry" />
        </mxCell>
        <mxCell id="zLt0u2PlP0yqmRnWrdfI-125" style="edgeStyle=orthogonalEdgeStyle;rounded=0;orthogonalLoop=1;jettySize=auto;html=1;exitX=0.5;exitY=0;exitDx=0;exitDy=0;entryX=0.5;entryY=1;entryDx=0;entryDy=0;" edge="1" parent="1" source="zLt0u2PlP0yqmRnWrdfI-6" target="zLt0u2PlP0yqmRnWrdfI-119">
          <mxGeometry relative="1" as="geometry" />
        </mxCell>
        <mxCell id="zLt0u2PlP0yqmRnWrdfI-6" value="RendezVous" style="swimlane;fontStyle=0;align=center;verticalAlign=top;childLayout=stackLayout;horizontal=1;startSize=26;horizontalStack=0;resizeParent=1;resizeLast=0;collapsible=1;marginBottom=0;rounded=0;shadow=0;strokeWidth=1;" vertex="1" parent="1">
          <mxGeometry x="610" y="310" width="160" height="158" as="geometry">
            <mxRectangle x="130" y="380" width="160" height="26" as="alternateBounds" />
          </mxGeometry>
        </mxCell>
        <mxCell id="zLt0u2PlP0yqmRnWrdfI-7" value="id_rendezVous" style="text;align=left;verticalAlign=top;spacingLeft=4;spacingRight=4;overflow=hidden;rotatable=0;points=[[0,0.5],[1,0.5]];portConstraint=eastwest;" vertex="1" parent="zLt0u2PlP0yqmRnWrdfI-6">
          <mxGeometry y="26" width="160" height="26" as="geometry" />
        </mxCell>
        <mxCell id="zLt0u2PlP0yqmRnWrdfI-8" value="salle" style="text;align=left;verticalAlign=top;spacingLeft=4;spacingRight=4;overflow=hidden;rotatable=0;points=[[0,0.5],[1,0.5]];portConstraint=eastwest;rounded=0;shadow=0;html=0;" vertex="1" parent="zLt0u2PlP0yqmRnWrdfI-6">
          <mxGeometry y="52" width="160" height="26" as="geometry" />
        </mxCell>
        <mxCell id="zLt0u2PlP0yqmRnWrdfI-9" value="date&#xa;&#xa;heure" style="text;align=left;verticalAlign=top;spacingLeft=4;spacingRight=4;overflow=hidden;rotatable=0;points=[[0,0.5],[1,0.5]];portConstraint=eastwest;" vertex="1" parent="zLt0u2PlP0yqmRnWrdfI-6">
          <mxGeometry y="78" width="160" height="54" as="geometry" />
        </mxCell>
        <mxCell id="zLt0u2PlP0yqmRnWrdfI-112" value="ref_utilisateur" style="text;align=left;verticalAlign=top;spacingLeft=4;spacingRight=4;overflow=hidden;rotatable=0;points=[[0,0.5],[1,0.5]];portConstraint=eastwest;rounded=0;shadow=0;html=0;" vertex="1" parent="zLt0u2PlP0yqmRnWrdfI-6">
          <mxGeometry y="132" width="160" height="26" as="geometry" />
        </mxCell>
        <mxCell id="zLt0u2PlP0yqmRnWrdfI-10" value="Fiches Etudiant" style="swimlane;fontStyle=0;align=center;verticalAlign=top;childLayout=stackLayout;horizontal=1;startSize=26;horizontalStack=0;resizeParent=1;resizeLast=0;collapsible=1;marginBottom=0;rounded=0;shadow=0;strokeWidth=1;" vertex="1" parent="1">
          <mxGeometry x="730" y="-110" width="160" height="320" as="geometry">
            <mxRectangle x="550" y="140" width="160" height="26" as="alternateBounds" />
          </mxGeometry>
        </mxCell>
        <mxCell id="zLt0u2PlP0yqmRnWrdfI-11" value="id_ficheEtudiant" style="text;align=left;verticalAlign=top;spacingLeft=4;spacingRight=4;overflow=hidden;rotatable=0;points=[[0,0.5],[1,0.5]];portConstraint=eastwest;" vertex="1" parent="zLt0u2PlP0yqmRnWrdfI-10">
          <mxGeometry y="26" width="160" height="26" as="geometry" />
        </mxCell>
        <mxCell id="zLt0u2PlP0yqmRnWrdfI-12" value="nom" style="text;align=left;verticalAlign=top;spacingLeft=4;spacingRight=4;overflow=hidden;rotatable=0;points=[[0,0.5],[1,0.5]];portConstraint=eastwest;rounded=0;shadow=0;html=0;" vertex="1" parent="zLt0u2PlP0yqmRnWrdfI-10">
          <mxGeometry y="52" width="160" height="26" as="geometry" />
        </mxCell>
        <mxCell id="zLt0u2PlP0yqmRnWrdfI-13" value="prenom" style="text;align=left;verticalAlign=top;spacingLeft=4;spacingRight=4;overflow=hidden;rotatable=0;points=[[0,0.5],[1,0.5]];portConstraint=eastwest;rounded=0;shadow=0;html=0;" vertex="1" parent="zLt0u2PlP0yqmRnWrdfI-10">
          <mxGeometry y="78" width="160" height="26" as="geometry" />
        </mxCell>
        <mxCell id="zLt0u2PlP0yqmRnWrdfI-14" value="dernier_diplome" style="text;align=left;verticalAlign=top;spacingLeft=4;spacingRight=4;overflow=hidden;rotatable=0;points=[[0,0.5],[1,0.5]];portConstraint=eastwest;rounded=0;shadow=0;html=0;" vertex="1" parent="zLt0u2PlP0yqmRnWrdfI-10">
          <mxGeometry y="104" width="160" height="26" as="geometry" />
        </mxCell>
        <mxCell id="zLt0u2PlP0yqmRnWrdfI-15" value="email" style="text;align=left;verticalAlign=top;spacingLeft=4;spacingRight=4;overflow=hidden;rotatable=0;points=[[0,0.5],[1,0.5]];portConstraint=eastwest;rounded=0;shadow=0;html=0;" vertex="1" parent="zLt0u2PlP0yqmRnWrdfI-10">
          <mxGeometry y="130" width="160" height="26" as="geometry" />
        </mxCell>
        <mxCell id="zLt0u2PlP0yqmRnWrdfI-16" value="telephone" style="text;align=left;verticalAlign=top;spacingLeft=4;spacingRight=4;overflow=hidden;rotatable=0;points=[[0,0.5],[1,0.5]];portConstraint=eastwest;" vertex="1" parent="zLt0u2PlP0yqmRnWrdfI-10">
          <mxGeometry y="156" width="160" height="26" as="geometry" />
        </mxCell>
        <mxCell id="zLt0u2PlP0yqmRnWrdfI-17" value="ville&#xa;&#xa;cp&#xa;&#xa;rue&#xa;&#xa;" style="text;align=left;verticalAlign=top;spacingLeft=4;spacingRight=4;overflow=hidden;rotatable=0;points=[[0,0.5],[1,0.5]];portConstraint=eastwest;" vertex="1" parent="zLt0u2PlP0yqmRnWrdfI-10">
          <mxGeometry y="182" width="160" height="90" as="geometry" />
        </mxCell>
        <mxCell id="zLt0u2PlP0yqmRnWrdfI-132" value="ref_dossierInscription" style="text;align=left;verticalAlign=top;spacingLeft=4;spacingRight=4;overflow=hidden;rotatable=0;points=[[0,0.5],[1,0.5]];portConstraint=eastwest;" vertex="1" parent="zLt0u2PlP0yqmRnWrdfI-10">
          <mxGeometry y="272" width="160" height="18" as="geometry" />
        </mxCell>
        <mxCell id="zLt0u2PlP0yqmRnWrdfI-135" value="ref_utilisateur" style="text;align=left;verticalAlign=top;spacingLeft=4;spacingRight=4;overflow=hidden;rotatable=0;points=[[0,0.5],[1,0.5]];portConstraint=eastwest;" vertex="1" parent="zLt0u2PlP0yqmRnWrdfI-10">
          <mxGeometry y="290" width="160" height="30" as="geometry" />
        </mxCell>
        <mxCell id="zLt0u2PlP0yqmRnWrdfI-18" value="Dossier d&#39;inscription" style="swimlane;fontStyle=2;align=center;verticalAlign=top;childLayout=stackLayout;horizontal=1;startSize=26;horizontalStack=0;resizeParent=1;resizeLast=0;collapsible=1;marginBottom=0;rounded=0;shadow=0;strokeWidth=1;" vertex="1" parent="1">
          <mxGeometry x="410" y="-2" width="160" height="164" as="geometry">
            <mxRectangle x="230" y="140" width="160" height="26" as="alternateBounds" />
          </mxGeometry>
        </mxCell>
        <mxCell id="zLt0u2PlP0yqmRnWrdfI-19" value="id_dossierInscription" style="text;align=left;verticalAlign=top;spacingLeft=4;spacingRight=4;overflow=hidden;rotatable=0;points=[[0,0.5],[1,0.5]];portConstraint=eastwest;" vertex="1" parent="zLt0u2PlP0yqmRnWrdfI-18">
          <mxGeometry y="26" width="160" height="26" as="geometry" />
        </mxCell>
        <mxCell id="zLt0u2PlP0yqmRnWrdfI-20" value="date" style="text;align=left;verticalAlign=top;spacingLeft=4;spacingRight=4;overflow=hidden;rotatable=0;points=[[0,0.5],[1,0.5]];portConstraint=eastwest;rounded=0;shadow=0;html=0;" vertex="1" parent="zLt0u2PlP0yqmRnWrdfI-18">
          <mxGeometry y="52" width="160" height="26" as="geometry" />
        </mxCell>
        <mxCell id="zLt0u2PlP0yqmRnWrdfI-21" value="heure" style="text;align=left;verticalAlign=top;spacingLeft=4;spacingRight=4;overflow=hidden;rotatable=0;points=[[0,0.5],[1,0.5]];portConstraint=eastwest;rounded=0;shadow=0;html=0;" vertex="1" parent="zLt0u2PlP0yqmRnWrdfI-18">
          <mxGeometry y="78" width="160" height="26" as="geometry" />
        </mxCell>
        <mxCell id="zLt0u2PlP0yqmRnWrdfI-22" value="filiere d&#39;interet&lt;div&gt;&lt;br&gt;&lt;/div&gt;&lt;div&gt;motivation etudiant&lt;/div&gt;" style="text;html=1;align=left;verticalAlign=middle;resizable=0;points=[];autosize=1;strokeColor=none;fillColor=none;" vertex="1" parent="zLt0u2PlP0yqmRnWrdfI-18">
          <mxGeometry y="104" width="160" height="60" as="geometry" />
        </mxCell>
        <mxCell id="zLt0u2PlP0yqmRnWrdfI-23" value="Fournisseur" style="swimlane;fontStyle=2;align=center;verticalAlign=top;childLayout=stackLayout;horizontal=1;startSize=26;horizontalStack=0;resizeParent=1;resizeLast=0;collapsible=1;marginBottom=0;rounded=0;shadow=0;strokeWidth=1;" vertex="1" parent="1">
          <mxGeometry x="620" y="640" width="160" height="130" as="geometry">
            <mxRectangle x="230" y="140" width="160" height="26" as="alternateBounds" />
          </mxGeometry>
        </mxCell>
        <mxCell id="zLt0u2PlP0yqmRnWrdfI-24" value="id_fournisseur" style="text;align=left;verticalAlign=top;spacingLeft=4;spacingRight=4;overflow=hidden;rotatable=0;points=[[0,0.5],[1,0.5]];portConstraint=eastwest;" vertex="1" parent="zLt0u2PlP0yqmRnWrdfI-23">
          <mxGeometry y="26" width="160" height="26" as="geometry" />
        </mxCell>
        <mxCell id="zLt0u2PlP0yqmRnWrdfI-25" value="prix" style="text;align=left;verticalAlign=top;spacingLeft=4;spacingRight=4;overflow=hidden;rotatable=0;points=[[0,0.5],[1,0.5]];portConstraint=eastwest;rounded=0;shadow=0;html=0;" vertex="1" parent="zLt0u2PlP0yqmRnWrdfI-23">
          <mxGeometry y="52" width="160" height="26" as="geometry" />
        </mxCell>
        <mxCell id="zLt0u2PlP0yqmRnWrdfI-107" value="ref_stock" style="text;align=left;verticalAlign=top;spacingLeft=4;spacingRight=4;overflow=hidden;rotatable=0;points=[[0,0.5],[1,0.5]];portConstraint=eastwest;rounded=0;shadow=0;html=0;" vertex="1" parent="zLt0u2PlP0yqmRnWrdfI-23">
          <mxGeometry y="78" width="160" height="26" as="geometry" />
        </mxCell>
        <mxCell id="zLt0u2PlP0yqmRnWrdfI-108" value="ref_commande" style="text;align=left;verticalAlign=top;spacingLeft=4;spacingRight=4;overflow=hidden;rotatable=0;points=[[0,0.5],[1,0.5]];portConstraint=eastwest;rounded=0;shadow=0;html=0;" vertex="1" parent="zLt0u2PlP0yqmRnWrdfI-23">
          <mxGeometry y="104" width="160" height="26" as="geometry" />
        </mxCell>
        <mxCell id="zLt0u2PlP0yqmRnWrdfI-26" value="Stock" style="swimlane;fontStyle=2;align=center;verticalAlign=top;childLayout=stackLayout;horizontal=1;startSize=26;horizontalStack=0;resizeParent=1;resizeLast=0;collapsible=1;marginBottom=0;rounded=0;shadow=0;strokeWidth=1;" vertex="1" parent="1">
          <mxGeometry x="160" y="350" width="160" height="164" as="geometry">
            <mxRectangle x="230" y="140" width="160" height="26" as="alternateBounds" />
          </mxGeometry>
        </mxCell>
        <mxCell id="zLt0u2PlP0yqmRnWrdfI-27" value="id_stock" style="text;align=left;verticalAlign=top;spacingLeft=4;spacingRight=4;overflow=hidden;rotatable=0;points=[[0,0.5],[1,0.5]];portConstraint=eastwest;" vertex="1" parent="zLt0u2PlP0yqmRnWrdfI-26">
          <mxGeometry y="26" width="160" height="26" as="geometry" />
        </mxCell>
        <mxCell id="zLt0u2PlP0yqmRnWrdfI-28" value="libelle" style="text;align=left;verticalAlign=top;spacingLeft=4;spacingRight=4;overflow=hidden;rotatable=0;points=[[0,0.5],[1,0.5]];portConstraint=eastwest;rounded=0;shadow=0;html=0;" vertex="1" parent="zLt0u2PlP0yqmRnWrdfI-26">
          <mxGeometry y="52" width="160" height="26" as="geometry" />
        </mxCell>
        <mxCell id="zLt0u2PlP0yqmRnWrdfI-29" value="nb_en_stock" style="text;align=left;verticalAlign=top;spacingLeft=4;spacingRight=4;overflow=hidden;rotatable=0;points=[[0,0.5],[1,0.5]];portConstraint=eastwest;rounded=0;shadow=0;html=0;" vertex="1" parent="zLt0u2PlP0yqmRnWrdfI-26">
          <mxGeometry y="78" width="160" height="26" as="geometry" />
        </mxCell>
        <mxCell id="zLt0u2PlP0yqmRnWrdfI-30" value="description" style="text;html=1;align=left;verticalAlign=middle;resizable=0;points=[];autosize=1;strokeColor=none;fillColor=none;" vertex="1" parent="zLt0u2PlP0yqmRnWrdfI-26">
          <mxGeometry y="104" width="160" height="30" as="geometry" />
        </mxCell>
        <mxCell id="zLt0u2PlP0yqmRnWrdfI-111" value="ref_demandeFourniture" style="text;html=1;align=left;verticalAlign=middle;resizable=0;points=[];autosize=1;strokeColor=none;fillColor=none;" vertex="1" parent="zLt0u2PlP0yqmRnWrdfI-26">
          <mxGeometry y="134" width="160" height="30" as="geometry" />
        </mxCell>
        <mxCell id="zLt0u2PlP0yqmRnWrdfI-31" value="Demande Fourniture" style="swimlane;fontStyle=2;align=center;verticalAlign=top;childLayout=stackLayout;horizontal=1;startSize=26;horizontalStack=0;resizeParent=1;resizeLast=0;collapsible=1;marginBottom=0;rounded=0;shadow=0;strokeWidth=1;" vertex="1" parent="1">
          <mxGeometry x="220" y="116" width="160" height="164" as="geometry">
            <mxRectangle x="230" y="140" width="160" height="26" as="alternateBounds" />
          </mxGeometry>
        </mxCell>
        <mxCell id="zLt0u2PlP0yqmRnWrdfI-32" value="id_demandeFourniture" style="text;align=left;verticalAlign=top;spacingLeft=4;spacingRight=4;overflow=hidden;rotatable=0;points=[[0,0.5],[1,0.5]];portConstraint=eastwest;" vertex="1" parent="zLt0u2PlP0yqmRnWrdfI-31">
          <mxGeometry y="26" width="160" height="26" as="geometry" />
        </mxCell>
        <mxCell id="zLt0u2PlP0yqmRnWrdfI-33" value="article" style="text;align=left;verticalAlign=top;spacingLeft=4;spacingRight=4;overflow=hidden;rotatable=0;points=[[0,0.5],[1,0.5]];portConstraint=eastwest;rounded=0;shadow=0;html=0;" vertex="1" parent="zLt0u2PlP0yqmRnWrdfI-31">
          <mxGeometry y="52" width="160" height="26" as="geometry" />
        </mxCell>
        <mxCell id="zLt0u2PlP0yqmRnWrdfI-34" value="quantitÃ©" style="text;align=left;verticalAlign=top;spacingLeft=4;spacingRight=4;overflow=hidden;rotatable=0;points=[[0,0.5],[1,0.5]];portConstraint=eastwest;rounded=0;shadow=0;html=0;" vertex="1" parent="zLt0u2PlP0yqmRnWrdfI-31">
          <mxGeometry y="78" width="160" height="26" as="geometry" />
        </mxCell>
        <mxCell id="zLt0u2PlP0yqmRnWrdfI-35" value="raison&lt;div&gt;&lt;br&gt;&lt;/div&gt;&lt;div&gt;approuver&lt;/div&gt;" style="text;html=1;align=left;verticalAlign=middle;resizable=0;points=[];autosize=1;strokeColor=none;fillColor=none;" vertex="1" parent="zLt0u2PlP0yqmRnWrdfI-31">
          <mxGeometry y="104" width="160" height="60" as="geometry" />
        </mxCell>
        <mxCell id="zLt0u2PlP0yqmRnWrdfI-36" value="Commande" style="swimlane;fontStyle=2;align=center;verticalAlign=top;childLayout=stackLayout;horizontal=1;startSize=26;horizontalStack=0;resizeParent=1;resizeLast=0;collapsible=1;marginBottom=0;rounded=0;shadow=0;strokeWidth=1;" vertex="1" parent="1">
          <mxGeometry x="-170" y="260" width="160" height="190" as="geometry">
            <mxRectangle x="230" y="140" width="160" height="26" as="alternateBounds" />
          </mxGeometry>
        </mxCell>
        <mxCell id="zLt0u2PlP0yqmRnWrdfI-37" value="id_commande" style="text;align=left;verticalAlign=top;spacingLeft=4;spacingRight=4;overflow=hidden;rotatable=0;points=[[0,0.5],[1,0.5]];portConstraint=eastwest;" vertex="1" parent="zLt0u2PlP0yqmRnWrdfI-36">
          <mxGeometry y="26" width="160" height="26" as="geometry" />
        </mxCell>
        <mxCell id="zLt0u2PlP0yqmRnWrdfI-38" value="date" style="text;align=left;verticalAlign=top;spacingLeft=4;spacingRight=4;overflow=hidden;rotatable=0;points=[[0,0.5],[1,0.5]];portConstraint=eastwest;rounded=0;shadow=0;html=0;" vertex="1" parent="zLt0u2PlP0yqmRnWrdfI-36">
          <mxGeometry y="52" width="160" height="26" as="geometry" />
        </mxCell>
        <mxCell id="zLt0u2PlP0yqmRnWrdfI-39" value="heure" style="text;align=left;verticalAlign=top;spacingLeft=4;spacingRight=4;overflow=hidden;rotatable=0;points=[[0,0.5],[1,0.5]];portConstraint=eastwest;rounded=0;shadow=0;html=0;" vertex="1" parent="zLt0u2PlP0yqmRnWrdfI-36">
          <mxGeometry y="78" width="160" height="26" as="geometry" />
        </mxCell>
        <mxCell id="zLt0u2PlP0yqmRnWrdfI-40" value="prÃ©nom&lt;div&gt;&lt;br&gt;&lt;div&gt;mail&lt;/div&gt;&lt;/div&gt;" style="text;html=1;align=left;verticalAlign=middle;resizable=0;points=[];autosize=1;strokeColor=none;fillColor=none;" vertex="1" parent="zLt0u2PlP0yqmRnWrdfI-36">
          <mxGeometry y="104" width="160" height="60" as="geometry" />
        </mxCell>
        <mxCell id="zLt0u2PlP0yqmRnWrdfI-110" value="ref_quantite" style="text;align=left;verticalAlign=top;spacingLeft=4;spacingRight=4;overflow=hidden;rotatable=0;points=[[0,0.5],[1,0.5]];portConstraint=eastwest;rounded=0;shadow=0;html=0;" vertex="1" parent="zLt0u2PlP0yqmRnWrdfI-36">
          <mxGeometry y="164" width="160" height="26" as="geometry" />
        </mxCell>
        <mxCell id="zLt0u2PlP0yqmRnWrdfI-42" style="edgeStyle=orthogonalEdgeStyle;rounded=0;orthogonalLoop=1;jettySize=auto;html=1;exitX=0;exitY=0.5;exitDx=0;exitDy=0;entryX=0;entryY=0.5;entryDx=0;entryDy=0;" edge="1" parent="1" source="zLt0u2PlP0yqmRnWrdfI-4" target="zLt0u2PlP0yqmRnWrdfI-38">
          <mxGeometry relative="1" as="geometry">
            <mxPoint x="-260" y="-30" as="sourcePoint" />
            <mxPoint x="-190" y="331" as="targetPoint" />
            <Array as="points">
              <mxPoint x="-260" y="-36" />
              <mxPoint x="-260" y="325" />
            </Array>
          </mxGeometry>
        </mxCell>
        <mxCell id="zLt0u2PlP0yqmRnWrdfI-45" value="QuantitÃ©" style="swimlane;fontStyle=2;align=center;verticalAlign=top;childLayout=stackLayout;horizontal=1;startSize=26;horizontalStack=0;resizeParent=1;resizeLast=0;collapsible=1;marginBottom=0;rounded=0;shadow=0;strokeWidth=1;" vertex="1" parent="1">
          <mxGeometry x="-100" y="570" width="160" height="104" as="geometry">
            <mxRectangle x="230" y="140" width="160" height="26" as="alternateBounds" />
          </mxGeometry>
        </mxCell>
        <mxCell id="zLt0u2PlP0yqmRnWrdfI-46" value="id_quantitÃ©" style="text;align=left;verticalAlign=top;spacingLeft=4;spacingRight=4;overflow=hidden;rotatable=0;points=[[0,0.5],[1,0.5]];portConstraint=eastwest;" vertex="1" parent="zLt0u2PlP0yqmRnWrdfI-45">
          <mxGeometry y="26" width="160" height="26" as="geometry" />
        </mxCell>
        <mxCell id="zLt0u2PlP0yqmRnWrdfI-47" value="quantitÃ©" style="text;align=left;verticalAlign=top;spacingLeft=4;spacingRight=4;overflow=hidden;rotatable=0;points=[[0,0.5],[1,0.5]];portConstraint=eastwest;rounded=0;shadow=0;html=0;" vertex="1" parent="zLt0u2PlP0yqmRnWrdfI-45">
          <mxGeometry y="52" width="160" height="26" as="geometry" />
        </mxCell>
        <mxCell id="zLt0u2PlP0yqmRnWrdfI-109" value="ref_stock" style="text;align=left;verticalAlign=top;spacingLeft=4;spacingRight=4;overflow=hidden;rotatable=0;points=[[0,0.5],[1,0.5]];portConstraint=eastwest;rounded=0;shadow=0;html=0;" vertex="1" parent="zLt0u2PlP0yqmRnWrdfI-45">
          <mxGeometry y="78" width="160" height="26" as="geometry" />
        </mxCell>
        <mxCell id="zLt0u2PlP0yqmRnWrdfI-48" style="edgeStyle=orthogonalEdgeStyle;rounded=0;orthogonalLoop=1;jettySize=auto;html=1;entryX=0;entryY=0.5;entryDx=0;entryDy=0;exitX=0.594;exitY=1.183;exitDx=0;exitDy=0;exitPerimeter=0;" edge="1" parent="1" source="zLt0u2PlP0yqmRnWrdfI-110" target="zLt0u2PlP0yqmRnWrdfI-47">
          <mxGeometry relative="1" as="geometry">
            <mxPoint x="-70" y="500" as="sourcePoint" />
            <Array as="points">
              <mxPoint x="-75" y="536" />
              <mxPoint x="-120" y="536" />
              <mxPoint x="-120" y="635" />
            </Array>
          </mxGeometry>
        </mxCell>
        <mxCell id="zLt0u2PlP0yqmRnWrdfI-53" value="" style="edgeStyle=orthogonalEdgeStyle;rounded=0;orthogonalLoop=1;jettySize=auto;html=1;exitX=0;exitY=0.5;exitDx=0;exitDy=0;entryX=1;entryY=0.5;entryDx=0;entryDy=0;" edge="1" parent="1" source="zLt0u2PlP0yqmRnWrdfI-24" target="zLt0u2PlP0yqmRnWrdfI-29">
          <mxGeometry relative="1" as="geometry">
            <mxPoint x="450" y="629" as="sourcePoint" />
            <mxPoint x="420" y="430" as="targetPoint" />
          </mxGeometry>
        </mxCell>
        <mxCell id="zLt0u2PlP0yqmRnWrdfI-66" value="" style="edgeStyle=orthogonalEdgeStyle;rounded=0;orthogonalLoop=1;jettySize=auto;html=1;exitX=1;exitY=0.5;exitDx=0;exitDy=0;entryX=0;entryY=0.5;entryDx=0;entryDy=0;" edge="1" parent="1" source="zLt0u2PlP0yqmRnWrdfI-47" target="zLt0u2PlP0yqmRnWrdfI-29">
          <mxGeometry relative="1" as="geometry">
            <mxPoint x="100" y="614" as="sourcePoint" />
            <mxPoint x="90" y="545" as="targetPoint" />
          </mxGeometry>
        </mxCell>
        <mxCell id="zLt0u2PlP0yqmRnWrdfI-71" value="" style="edgeStyle=orthogonalEdgeStyle;rounded=0;orthogonalLoop=1;jettySize=auto;html=1;exitX=0;exitY=0.5;exitDx=0;exitDy=0;entryX=0.469;entryY=1.063;entryDx=0;entryDy=0;entryPerimeter=0;" edge="1" parent="1" source="zLt0u2PlP0yqmRnWrdfI-27" target="zLt0u2PlP0yqmRnWrdfI-35">
          <mxGeometry relative="1" as="geometry">
            <mxPoint x="160" y="389" as="sourcePoint" />
            <mxPoint x="86.15999999999985" y="331.5" as="targetPoint" />
          </mxGeometry>
        </mxCell>
        <mxCell id="zLt0u2PlP0yqmRnWrdfI-73" value="" style="edgeStyle=orthogonalEdgeStyle;rounded=0;orthogonalLoop=1;jettySize=auto;html=1;exitX=0;exitY=0.5;exitDx=0;exitDy=0;entryX=0;entryY=0.5;entryDx=0;entryDy=0;" edge="1" parent="1" source="zLt0u2PlP0yqmRnWrdfI-25" target="zLt0u2PlP0yqmRnWrdfI-39">
          <mxGeometry relative="1" as="geometry">
            <mxPoint x="620" y="705" as="sourcePoint" />
            <mxPoint x="220" y="760" as="targetPoint" />
          </mxGeometry>
        </mxCell>
        <mxCell id="zLt0u2PlP0yqmRnWrdfI-93" style="edgeStyle=orthogonalEdgeStyle;rounded=0;orthogonalLoop=1;jettySize=auto;html=1;entryX=0;entryY=0.5;entryDx=0;entryDy=0;exitX=1;exitY=0.5;exitDx=0;exitDy=0;" edge="1" parent="1" source="zLt0u2PlP0yqmRnWrdfI-9">
          <mxGeometry relative="1" as="geometry">
            <mxPoint x="890" y="400" as="sourcePoint" />
            <mxPoint x="-239" y="-88" as="targetPoint" />
            <Array as="points">
              <mxPoint x="980" y="415" />
              <mxPoint x="980" y="-220" />
              <mxPoint x="-259" y="-220" />
              <mxPoint x="-259" y="-88" />
            </Array>
          </mxGeometry>
        </mxCell>
        <mxCell id="zLt0u2PlP0yqmRnWrdfI-101" style="edgeStyle=orthogonalEdgeStyle;rounded=0;orthogonalLoop=1;jettySize=auto;html=1;entryX=0;entryY=0.5;entryDx=0;entryDy=0;" edge="1" parent="1">
          <mxGeometry relative="1" as="geometry">
            <Array as="points">
              <mxPoint x="314" y="-50" />
              <mxPoint x="314" y="101" />
            </Array>
            <mxPoint x="-80" y="-50" as="sourcePoint" />
            <mxPoint x="414" y="101" as="targetPoint" />
          </mxGeometry>
        </mxCell>
        <mxCell id="zLt0u2PlP0yqmRnWrdfI-124" style="edgeStyle=orthogonalEdgeStyle;rounded=0;orthogonalLoop=1;jettySize=auto;html=1;" edge="1" parent="1" source="zLt0u2PlP0yqmRnWrdfI-119">
          <mxGeometry relative="1" as="geometry">
            <mxPoint x="490" y="170" as="targetPoint" />
          </mxGeometry>
        </mxCell>
        <mxCell id="zLt0u2PlP0yqmRnWrdfI-119" value="LiÃ©e" style="swimlane;whiteSpace=wrap;html=1;" vertex="1" parent="1">
          <mxGeometry x="552.5" y="200" width="145" height="80" as="geometry" />
        </mxCell>
        <mxCell id="zLt0u2PlP0yqmRnWrdfI-120" value="ref_rendezVous" style="text;html=1;align=center;verticalAlign=middle;resizable=0;points=[];autosize=1;strokeColor=none;fillColor=none;" vertex="1" parent="zLt0u2PlP0yqmRnWrdfI-119">
          <mxGeometry y="25" width="110" height="30" as="geometry" />
        </mxCell>
        <mxCell id="zLt0u2PlP0yqmRnWrdfI-121" value="ref_dossierInscription" style="text;html=1;align=center;verticalAlign=middle;resizable=0;points=[];autosize=1;strokeColor=none;fillColor=none;" vertex="1" parent="zLt0u2PlP0yqmRnWrdfI-119">
          <mxGeometry y="45" width="140" height="30" as="geometry" />
        </mxCell>
        <mxCell id="zLt0u2PlP0yqmRnWrdfI-130" style="edgeStyle=orthogonalEdgeStyle;rounded=0;orthogonalLoop=1;jettySize=auto;html=1;" edge="1" parent="1">
          <mxGeometry relative="1" as="geometry">
            <mxPoint x="-80" y="46" as="sourcePoint" />
            <mxPoint x="210" y="236" as="targetPoint" />
            <Array as="points">
              <mxPoint x="-10" y="46" />
              <mxPoint x="-10" y="236" />
            </Array>
          </mxGeometry>
        </mxCell>
        <mxCell id="zLt0u2PlP0yqmRnWrdfI-131" style="edgeStyle=orthogonalEdgeStyle;rounded=0;orthogonalLoop=1;jettySize=auto;html=1;entryX=0.306;entryY=0.011;entryDx=0;entryDy=0;entryPerimeter=0;" edge="1" parent="1" source="zLt0u2PlP0yqmRnWrdfI-5" target="zLt0u2PlP0yqmRnWrdfI-31">
          <mxGeometry relative="1" as="geometry" />
        </mxCell>
        <mxCell id="zLt0u2PlP0yqmRnWrdfI-133" style="edgeStyle=orthogonalEdgeStyle;rounded=0;orthogonalLoop=1;jettySize=auto;html=1;exitX=0;exitY=0.5;exitDx=0;exitDy=0;entryX=1;entryY=0.5;entryDx=0;entryDy=0;" edge="1" parent="1" source="zLt0u2PlP0yqmRnWrdfI-16" target="zLt0u2PlP0yqmRnWrdfI-21">
          <mxGeometry relative="1" as="geometry" />
        </mxCell>
        <mxCell id="zLt0u2PlP0yqmRnWrdfI-136" style="edgeStyle=orthogonalEdgeStyle;rounded=0;orthogonalLoop=1;jettySize=auto;html=1;exitX=0;exitY=0.5;exitDx=0;exitDy=0;entryX=1.006;entryY=0.061;entryDx=0;entryDy=0;entryPerimeter=0;" edge="1" parent="1" source="zLt0u2PlP0yqmRnWrdfI-12" target="zLt0u2PlP0yqmRnWrdfI-1">
          <mxGeometry relative="1" as="geometry" />
        </mxCell>
      </root>
    </mxGraphModel>
  </diagram>
</mxfile>
